<svg width="370" height="143" viewBox="0 0 370 143" fill="none" xmlns="http://www.w3.org/2000/svg">
<path d="M22.7905 123.598L18.7945 131.23V136H17.0665V131.248L13.0705 123.598H14.9605L17.9845 129.736L21.0085 123.598H22.7905ZM27.0963 126.298C28.4283 126.298 29.4603 126.742 30.1923 127.63C30.9363 128.518 31.3083 129.724 31.3083 131.248C31.3083 132.232 31.1403 133.102 30.8043 133.858C30.4683 134.602 29.9823 135.184 29.3463 135.604C28.7103 136.012 27.9543 136.216 27.0783 136.216C25.7463 136.216 24.7083 135.772 23.9643 134.884C23.2203 133.996 22.8483 132.79 22.8483 131.266C22.8483 130.282 23.0163 129.418 23.3523 128.674C23.6883 127.918 24.1743 127.336 24.8103 126.928C25.4463 126.508 26.2083 126.298 27.0963 126.298ZM27.0963 127.63C25.4523 127.63 24.6303 128.842 24.6303 131.266C24.6303 133.678 25.4463 134.884 27.0783 134.884C28.7103 134.884 29.5263 133.672 29.5263 131.248C29.5263 128.836 28.7163 127.63 27.0963 127.63ZM41.1 136H39.678L39.552 134.524C39.192 135.112 38.778 135.544 38.31 135.82C37.842 136.084 37.272 136.216 36.6 136.216C35.772 136.216 35.124 135.964 34.656 135.46C34.188 134.956 33.954 134.242 33.954 133.318V126.514H35.61V133.138C35.61 133.786 35.724 134.248 35.952 134.524C36.18 134.788 36.552 134.92 37.068 134.92C37.992 134.92 38.784 134.374 39.444 133.282V126.514H41.1V136ZM48.6425 126.298C48.9785 126.298 49.2905 126.334 49.5785 126.406L49.2725 128.026C48.9845 127.954 48.7085 127.918 48.4445 127.918C47.8565 127.918 47.3825 128.134 47.0225 128.566C46.6625 128.998 46.3805 129.67 46.1765 130.582V136H44.5205V126.514H45.9425L46.1045 128.44C46.3565 127.732 46.6985 127.198 47.1305 126.838C47.5625 126.478 48.0665 126.298 48.6425 126.298ZM63.5716 122.698V136H62.1136L61.9516 134.686C61.6396 135.166 61.2496 135.544 60.7816 135.82C60.3136 136.084 59.7916 136.216 59.2156 136.216C58.0876 136.216 57.2056 135.772 56.5696 134.884C55.9456 133.996 55.6336 132.802 55.6336 131.302C55.6336 130.33 55.7836 129.466 56.0836 128.71C56.3836 127.954 56.8156 127.366 57.3796 126.946C57.9436 126.514 58.6036 126.298 59.3596 126.298C60.3316 126.298 61.1836 126.688 61.9156 127.468V122.5L63.5716 122.698ZM59.5756 134.902C60.0796 134.902 60.5116 134.788 60.8716 134.56C61.2316 134.32 61.5796 133.966 61.9156 133.498V128.854C61.6036 128.446 61.2676 128.14 60.9076 127.936C60.5596 127.72 60.1636 127.612 59.7196 127.612C58.9876 127.612 58.4176 127.918 58.0096 128.53C57.6136 129.142 57.4156 130.054 57.4156 131.266C57.4156 132.49 57.6016 133.402 57.9736 134.002C58.3456 134.602 58.8796 134.902 59.5756 134.902ZM73.3754 133.786C73.3754 134.17 73.4414 134.458 73.5734 134.65C73.7054 134.83 73.9034 134.968 74.1674 135.064L73.7894 136.216C73.2974 136.156 72.9014 136.018 72.6014 135.802C72.3014 135.586 72.0794 135.25 71.9354 134.794C71.2994 135.742 70.3574 136.216 69.1094 136.216C68.1734 136.216 67.4354 135.952 66.8954 135.424C66.3554 134.896 66.0854 134.206 66.0854 133.354C66.0854 132.346 66.4454 131.572 67.1654 131.032C67.8974 130.492 68.9294 130.222 70.2614 130.222H71.7194V129.52C71.7194 128.848 71.5574 128.368 71.2334 128.08C70.9094 127.792 70.4114 127.648 69.7394 127.648C69.0434 127.648 68.1914 127.816 67.1834 128.152L66.7694 126.946C67.9454 126.514 69.0374 126.298 70.0454 126.298C71.1614 126.298 71.9954 126.574 72.5474 127.126C73.0994 127.666 73.3754 128.44 73.3754 129.448V133.786ZM69.4874 134.974C70.4354 134.974 71.1794 134.482 71.7194 133.498V131.32H70.4774C68.7254 131.32 67.8494 131.968 67.8494 133.264C67.8494 133.828 67.9874 134.254 68.2634 134.542C68.5394 134.83 68.9474 134.974 69.4874 134.974ZM81.5644 135.568C80.9404 136 80.2324 136.216 79.4404 136.216C78.6364 136.216 78.0064 135.988 77.5504 135.532C77.1064 135.064 76.8844 134.392 76.8844 133.516V127.792H75.2284V126.514H76.8844V124.372L78.5404 124.174V126.514H80.7904L80.6104 127.792H78.5404V133.444C78.5404 133.936 78.6244 134.296 78.7924 134.524C78.9724 134.74 79.2664 134.848 79.6744 134.848C80.0464 134.848 80.4664 134.722 80.9344 134.47L81.5644 135.568ZM89.5473 133.786C89.5473 134.17 89.6133 134.458 89.7453 134.65C89.8773 134.83 90.0753 134.968 90.3393 135.064L89.9613 136.216C89.4693 136.156 89.0733 136.018 88.7733 135.802C88.4733 135.586 88.2513 135.25 88.1073 134.794C87.4713 135.742 86.5293 136.216 85.2813 136.216C84.3453 136.216 83.6073 135.952 83.0673 135.424C82.5273 134.896 82.2573 134.206 82.2573 133.354C82.2573 132.346 82.6173 131.572 83.3373 131.032C84.0693 130.492 85.1013 130.222 86.4333 130.222H87.8913V129.52C87.8913 128.848 87.7293 128.368 87.4053 128.08C87.0813 127.792 86.5833 127.648 85.9113 127.648C85.2153 127.648 84.3633 127.816 83.3553 128.152L82.9413 126.946C84.1173 126.514 85.2093 126.298 86.2173 126.298C87.3333 126.298 88.1673 126.574 88.7193 127.126C89.2713 127.666 89.5473 128.44 89.5473 129.448V133.786ZM85.6593 134.974C86.6073 134.974 87.3513 134.482 87.8913 133.498V131.32H86.6493C84.8973 131.32 84.0213 131.968 84.0213 133.264C84.0213 133.828 84.1593 134.254 84.4353 134.542C84.7113 134.83 85.1193 134.974 85.6593 134.974ZM99.368 126.514V136H97.712V126.514H99.368ZM98.522 121.96C98.87 121.96 99.152 122.068 99.368 122.284C99.584 122.5 99.692 122.77 99.692 123.094C99.692 123.418 99.584 123.688 99.368 123.904C99.152 124.108 98.87 124.21 98.522 124.21C98.186 124.21 97.91 124.108 97.694 123.904C97.478 123.688 97.37 123.418 97.37 123.094C97.37 122.77 97.478 122.5 97.694 122.284C97.91 122.068 98.186 121.96 98.522 121.96ZM105.366 126.298C106.014 126.298 106.596 126.388 107.112 126.568C107.628 126.748 108.12 127.018 108.588 127.378L107.886 128.422C107.454 128.146 107.04 127.942 106.644 127.81C106.26 127.678 105.852 127.612 105.42 127.612C104.88 127.612 104.454 127.726 104.142 127.954C103.83 128.17 103.674 128.47 103.674 128.854C103.674 129.238 103.818 129.538 104.106 129.754C104.406 129.97 104.94 130.18 105.708 130.384C106.764 130.648 107.55 131.008 108.066 131.464C108.594 131.92 108.858 132.544 108.858 133.336C108.858 134.272 108.492 134.986 107.76 135.478C107.04 135.97 106.158 136.216 105.114 136.216C103.674 136.216 102.48 135.802 101.532 134.974L102.414 133.966C103.218 134.578 104.106 134.884 105.078 134.884C105.702 134.884 106.194 134.758 106.554 134.506C106.926 134.242 107.112 133.888 107.112 133.444C107.112 133.12 107.046 132.862 106.914 132.67C106.782 132.466 106.554 132.292 106.23 132.148C105.906 131.992 105.432 131.83 104.808 131.662C103.8 131.398 103.068 131.044 102.612 130.6C102.168 130.156 101.946 129.592 101.946 128.908C101.946 128.416 102.09 127.972 102.378 127.576C102.678 127.168 103.086 126.856 103.602 126.64C104.13 126.412 104.718 126.298 105.366 126.298ZM120.422 126.298C121.286 126.298 121.958 126.556 122.438 127.072C122.93 127.588 123.176 128.296 123.176 129.196V136H121.52V129.43C121.52 128.758 121.394 128.284 121.142 128.008C120.89 127.732 120.518 127.594 120.026 127.594C119.522 127.594 119.078 127.738 118.694 128.026C118.31 128.314 117.95 128.728 117.614 129.268V136H115.958V126.514H117.38L117.524 127.918C117.86 127.414 118.274 127.018 118.766 126.73C119.27 126.442 119.822 126.298 120.422 126.298ZM130.069 126.298C131.401 126.298 132.433 126.742 133.165 127.63C133.909 128.518 134.281 129.724 134.281 131.248C134.281 132.232 134.113 133.102 133.777 133.858C133.441 134.602 132.955 135.184 132.319 135.604C131.683 136.012 130.927 136.216 130.051 136.216C128.719 136.216 127.681 135.772 126.937 134.884C126.193 133.996 125.821 132.79 125.821 131.266C125.821 130.282 125.989 129.418 126.325 128.674C126.661 127.918 127.147 127.336 127.783 126.928C128.419 126.508 129.181 126.298 130.069 126.298ZM130.069 127.63C128.425 127.63 127.603 128.842 127.603 131.266C127.603 133.678 128.419 134.884 130.051 134.884C131.683 134.884 132.499 133.672 132.499 131.248C132.499 128.836 131.689 127.63 130.069 127.63ZM141.805 135.568C141.181 136 140.473 136.216 139.681 136.216C138.877 136.216 138.247 135.988 137.791 135.532C137.347 135.064 137.125 134.392 137.125 133.516V127.792H135.469V126.514H137.125V124.372L138.781 124.174V126.514H141.031L140.851 127.792H138.781V133.444C138.781 133.936 138.865 134.296 139.033 134.524C139.213 134.74 139.507 134.848 139.915 134.848C140.287 134.848 140.707 134.722 141.175 134.47L141.805 135.568ZM151.74 126.298C152.304 126.298 152.82 126.382 153.288 126.55C153.756 126.706 154.206 126.964 154.638 127.324L153.846 128.368C153.51 128.128 153.18 127.954 152.856 127.846C152.544 127.726 152.196 127.666 151.812 127.666C151.044 127.666 150.444 127.972 150.012 128.584C149.592 129.196 149.382 130.102 149.382 131.302C149.382 132.502 149.592 133.39 150.012 133.966C150.432 134.53 151.032 134.812 151.812 134.812C152.184 134.812 152.526 134.758 152.838 134.65C153.15 134.53 153.498 134.344 153.882 134.092L154.638 135.172C153.774 135.868 152.808 136.216 151.74 136.216C150.456 136.216 149.442 135.784 148.698 134.92C147.966 134.056 147.6 132.862 147.6 131.338C147.6 130.33 147.768 129.448 148.104 128.692C148.44 127.936 148.914 127.348 149.526 126.928C150.15 126.508 150.888 126.298 151.74 126.298ZM163.692 130.978C163.692 131.254 163.68 131.536 163.656 131.824H157.608C157.68 132.868 157.944 133.636 158.4 134.128C158.856 134.62 159.444 134.866 160.164 134.866C160.62 134.866 161.04 134.8 161.424 134.668C161.808 134.536 162.21 134.326 162.63 134.038L163.35 135.028C162.342 135.82 161.238 136.216 160.038 136.216C158.718 136.216 157.686 135.784 156.942 134.92C156.21 134.056 155.844 132.868 155.844 131.356C155.844 130.372 156 129.502 156.312 128.746C156.636 127.978 157.092 127.378 157.68 126.946C158.28 126.514 158.982 126.298 159.786 126.298C161.046 126.298 162.012 126.712 162.684 127.54C163.356 128.368 163.692 129.514 163.692 130.978ZM162.054 130.492C162.054 129.556 161.868 128.842 161.496 128.35C161.124 127.858 160.566 127.612 159.822 127.612C158.466 127.612 157.728 128.608 157.608 130.6H162.054V130.492ZM170.801 126.298C171.665 126.298 172.337 126.556 172.817 127.072C173.309 127.588 173.555 128.296 173.555 129.196V136H171.899V129.43C171.899 128.758 171.773 128.284 171.521 128.008C171.269 127.732 170.897 127.594 170.405 127.594C169.901 127.594 169.457 127.738 169.073 128.026C168.689 128.314 168.329 128.728 167.993 129.268V136H166.337V126.514H167.759L167.903 127.918C168.239 127.414 168.653 127.018 169.145 126.73C169.649 126.442 170.201 126.298 170.801 126.298ZM181.672 135.568C181.048 136 180.34 136.216 179.548 136.216C178.744 136.216 178.114 135.988 177.658 135.532C177.214 135.064 176.992 134.392 176.992 133.516V127.792H175.336V126.514H176.992V124.372L178.648 124.174V126.514H180.898L180.718 127.792H178.648V133.444C178.648 133.936 178.732 134.296 178.9 134.524C179.08 134.74 179.374 134.848 179.782 134.848C180.154 134.848 180.574 134.722 181.042 134.47L181.672 135.568ZM187.51 126.298C187.846 126.298 188.158 126.334 188.446 126.406L188.14 128.026C187.852 127.954 187.576 127.918 187.312 127.918C186.724 127.918 186.25 128.134 185.89 128.566C185.53 128.998 185.248 129.67 185.044 130.582V136H183.388V126.514H184.81L184.972 128.44C185.224 127.732 185.566 127.198 185.998 126.838C186.43 126.478 186.934 126.298 187.51 126.298ZM196.088 133.786C196.088 134.17 196.154 134.458 196.286 134.65C196.418 134.83 196.616 134.968 196.88 135.064L196.502 136.216C196.01 136.156 195.614 136.018 195.314 135.802C195.014 135.586 194.792 135.25 194.648 134.794C194.012 135.742 193.07 136.216 191.822 136.216C190.886 136.216 190.148 135.952 189.608 135.424C189.068 134.896 188.798 134.206 188.798 133.354C188.798 132.346 189.158 131.572 189.878 131.032C190.61 130.492 191.642 130.222 192.974 130.222H194.432V129.52C194.432 128.848 194.27 128.368 193.946 128.08C193.622 127.792 193.124 127.648 192.452 127.648C191.756 127.648 190.904 127.816 189.896 128.152L189.482 126.946C190.658 126.514 191.75 126.298 192.758 126.298C193.874 126.298 194.708 126.574 195.26 127.126C195.812 127.666 196.088 128.44 196.088 129.448V133.786ZM192.2 134.974C193.148 134.974 193.892 134.482 194.432 133.498V131.32H193.19C191.438 131.32 190.562 131.968 190.562 133.264C190.562 133.828 190.7 134.254 190.976 134.542C191.252 134.83 191.66 134.974 192.2 134.974ZM201.204 136.216C200.592 136.216 200.106 136.036 199.746 135.676C199.398 135.304 199.224 134.788 199.224 134.128V122.698L200.88 122.5V134.092C200.88 134.356 200.922 134.548 201.006 134.668C201.102 134.788 201.258 134.848 201.474 134.848C201.702 134.848 201.906 134.812 202.086 134.74L202.518 135.892C202.122 136.108 201.684 136.216 201.204 136.216ZM206.477 136.216C205.865 136.216 205.379 136.036 205.019 135.676C204.671 135.304 204.497 134.788 204.497 134.128V122.698L206.153 122.5V134.092C206.153 134.356 206.195 134.548 206.279 134.668C206.375 134.788 206.531 134.848 206.747 134.848C206.975 134.848 207.179 134.812 207.359 134.74L207.791 135.892C207.395 136.108 206.957 136.216 206.477 136.216ZM213.483 136.054C213.111 137.158 212.589 138.028 211.917 138.664C211.257 139.312 210.309 139.702 209.073 139.834L208.893 138.538C209.517 138.43 210.015 138.274 210.387 138.07C210.759 137.866 211.053 137.602 211.269 137.278C211.497 136.966 211.707 136.54 211.899 136H211.341L208.155 126.514H209.919L212.457 134.794L214.941 126.514H216.651L213.483 136.054ZM225.882 126.298C226.53 126.298 227.112 126.388 227.628 126.568C228.144 126.748 228.636 127.018 229.104 127.378L228.402 128.422C227.97 128.146 227.556 127.942 227.16 127.81C226.776 127.678 226.368 127.612 225.936 127.612C225.396 127.612 224.97 127.726 224.658 127.954C224.346 128.17 224.19 128.47 224.19 128.854C224.19 129.238 224.334 129.538 224.622 129.754C224.922 129.97 225.456 130.18 226.224 130.384C227.28 130.648 228.066 131.008 228.582 131.464C229.11 131.92 229.374 132.544 229.374 133.336C229.374 134.272 229.008 134.986 228.276 135.478C227.556 135.97 226.674 136.216 225.63 136.216C224.19 136.216 222.996 135.802 222.048 134.974L222.93 133.966C223.734 134.578 224.622 134.884 225.594 134.884C226.218 134.884 226.71 134.758 227.07 134.506C227.442 134.242 227.628 133.888 227.628 133.444C227.628 133.12 227.562 132.862 227.43 132.67C227.298 132.466 227.07 132.292 226.746 132.148C226.422 131.992 225.948 131.83 225.324 131.662C224.316 131.398 223.584 131.044 223.128 130.6C222.684 130.156 222.462 129.592 222.462 128.908C222.462 128.416 222.606 127.972 222.894 127.576C223.194 127.168 223.602 126.856 224.118 126.64C224.646 126.412 225.234 126.298 225.882 126.298ZM236.498 135.568C235.874 136 235.166 136.216 234.374 136.216C233.57 136.216 232.94 135.988 232.484 135.532C232.04 135.064 231.818 134.392 231.818 133.516V127.792H230.162V126.514H231.818V124.372L233.474 124.174V126.514H235.724L235.544 127.792H233.474V133.444C233.474 133.936 233.558 134.296 233.726 134.524C233.906 134.74 234.2 134.848 234.608 134.848C234.98 134.848 235.4 134.722 235.868 134.47L236.498 135.568ZM241.514 126.298C242.846 126.298 243.878 126.742 244.61 127.63C245.354 128.518 245.726 129.724 245.726 131.248C245.726 132.232 245.558 133.102 245.222 133.858C244.886 134.602 244.4 135.184 243.764 135.604C243.128 136.012 242.372 136.216 241.496 136.216C240.164 136.216 239.126 135.772 238.382 134.884C237.638 133.996 237.266 132.79 237.266 131.266C237.266 130.282 237.434 129.418 237.77 128.674C238.106 127.918 238.592 127.336 239.228 126.928C239.864 126.508 240.626 126.298 241.514 126.298ZM241.514 127.63C239.87 127.63 239.048 128.842 239.048 131.266C239.048 133.678 239.864 134.884 241.496 134.884C243.128 134.884 243.944 133.672 243.944 131.248C243.944 128.836 243.134 127.63 241.514 127.63ZM252.584 126.298C252.92 126.298 253.232 126.334 253.52 126.406L253.214 128.026C252.926 127.954 252.65 127.918 252.386 127.918C251.798 127.918 251.324 128.134 250.964 128.566C250.604 128.998 250.322 129.67 250.118 130.582V136H248.462V126.514H249.884L250.046 128.44C250.298 127.732 250.64 127.198 251.072 126.838C251.504 126.478 252.008 126.298 252.584 126.298ZM262.024 130.978C262.024 131.254 262.012 131.536 261.988 131.824H255.94C256.012 132.868 256.276 133.636 256.732 134.128C257.188 134.62 257.776 134.866 258.496 134.866C258.952 134.866 259.372 134.8 259.756 134.668C260.14 134.536 260.542 134.326 260.962 134.038L261.682 135.028C260.674 135.82 259.57 136.216 258.37 136.216C257.05 136.216 256.018 135.784 255.274 134.92C254.542 134.056 254.176 132.868 254.176 131.356C254.176 130.372 254.332 129.502 254.644 128.746C254.968 127.978 255.424 127.378 256.012 126.946C256.612 126.514 257.314 126.298 258.118 126.298C259.378 126.298 260.344 126.712 261.016 127.54C261.688 128.368 262.024 129.514 262.024 130.978ZM260.386 130.492C260.386 129.556 260.2 128.842 259.828 128.35C259.456 127.858 258.898 127.612 258.154 127.612C256.798 127.612 256.06 128.608 255.94 130.6H260.386V130.492ZM272.013 122.698V136H270.555L270.393 134.686C270.081 135.166 269.691 135.544 269.223 135.82C268.755 136.084 268.233 136.216 267.657 136.216C266.529 136.216 265.647 135.772 265.011 134.884C264.387 133.996 264.075 132.802 264.075 131.302C264.075 130.33 264.225 129.466 264.525 128.71C264.825 127.954 265.257 127.366 265.821 126.946C266.385 126.514 267.045 126.298 267.801 126.298C268.773 126.298 269.625 126.688 270.357 127.468V122.5L272.013 122.698ZM268.017 134.902C268.521 134.902 268.953 134.788 269.313 134.56C269.673 134.32 270.021 133.966 270.357 133.498V128.854C270.045 128.446 269.709 128.14 269.349 127.936C269.001 127.72 268.605 127.612 268.161 127.612C267.429 127.612 266.859 127.918 266.451 128.53C266.055 129.142 265.857 130.054 265.857 131.266C265.857 132.49 266.043 133.402 266.415 134.002C266.787 134.602 267.321 134.902 268.017 134.902ZM286.58 133.786C286.58 134.17 286.646 134.458 286.778 134.65C286.91 134.83 287.108 134.968 287.372 135.064L286.994 136.216C286.502 136.156 286.106 136.018 285.806 135.802C285.506 135.586 285.284 135.25 285.14 134.794C284.504 135.742 283.562 136.216 282.314 136.216C281.378 136.216 280.64 135.952 280.1 135.424C279.56 134.896 279.29 134.206 279.29 133.354C279.29 132.346 279.65 131.572 280.37 131.032C281.102 130.492 282.134 130.222 283.466 130.222H284.924V129.52C284.924 128.848 284.762 128.368 284.438 128.08C284.114 127.792 283.616 127.648 282.944 127.648C282.248 127.648 281.396 127.816 280.388 128.152L279.974 126.946C281.15 126.514 282.242 126.298 283.25 126.298C284.366 126.298 285.2 126.574 285.752 127.126C286.304 127.666 286.58 128.44 286.58 129.448V133.786ZM282.692 134.974C283.64 134.974 284.384 134.482 284.924 133.498V131.32H283.682C281.93 131.32 281.054 131.968 281.054 133.264C281.054 133.828 281.192 134.254 281.468 134.542C281.744 134.83 282.152 134.974 282.692 134.974ZM294.445 126.298C295.309 126.298 295.981 126.556 296.461 127.072C296.953 127.588 297.199 128.296 297.199 129.196V136H295.543V129.43C295.543 128.758 295.417 128.284 295.165 128.008C294.913 127.732 294.541 127.594 294.049 127.594C293.545 127.594 293.101 127.738 292.717 128.026C292.333 128.314 291.973 128.728 291.637 129.268V136H289.981V126.514H291.403L291.547 127.918C291.883 127.414 292.297 127.018 292.789 126.73C293.293 126.442 293.845 126.298 294.445 126.298ZM304.203 136.054C303.831 137.158 303.309 138.028 302.637 138.664C301.977 139.312 301.029 139.702 299.793 139.834L299.613 138.538C300.237 138.43 300.735 138.274 301.107 138.07C301.479 137.866 301.773 137.602 301.989 137.278C302.217 136.966 302.427 136.54 302.619 136H302.061L298.875 126.514H300.639L303.177 134.794L305.661 126.514H307.371L304.203 136.054ZM320.101 126.514L317.941 136H315.691L314.035 128.008L312.325 136H310.129L307.915 126.514H309.571L311.281 134.848L313.153 126.514H315.007L316.789 134.848L318.517 126.514H320.101ZM326.631 126.298C327.495 126.298 328.167 126.556 328.647 127.072C329.139 127.588 329.385 128.296 329.385 129.196V136H327.729V129.43C327.729 128.758 327.597 128.284 327.333 128.008C327.081 127.732 326.709 127.594 326.217 127.594C325.725 127.594 325.287 127.738 324.903 128.026C324.519 128.314 324.159 128.722 323.823 129.25V136H322.167V122.716L323.823 122.536V127.828C324.567 126.808 325.503 126.298 326.631 126.298ZM339.878 130.978C339.878 131.254 339.866 131.536 339.842 131.824H333.794C333.866 132.868 334.13 133.636 334.586 134.128C335.042 134.62 335.63 134.866 336.35 134.866C336.806 134.866 337.226 134.8 337.61 134.668C337.994 134.536 338.396 134.326 338.816 134.038L339.536 135.028C338.528 135.82 337.424 136.216 336.224 136.216C334.904 136.216 333.872 135.784 333.128 134.92C332.396 134.056 332.03 132.868 332.03 131.356C332.03 130.372 332.186 129.502 332.498 128.746C332.822 127.978 333.278 127.378 333.866 126.946C334.466 126.514 335.168 126.298 335.972 126.298C337.232 126.298 338.198 126.712 338.87 127.54C339.542 128.368 339.878 129.514 339.878 130.978ZM338.24 130.492C338.24 129.556 338.054 128.842 337.682 128.35C337.31 127.858 336.752 127.612 336.008 127.612C334.652 127.612 333.914 128.608 333.794 130.6H338.24V130.492ZM346.645 126.298C346.981 126.298 347.293 126.334 347.581 126.406L347.275 128.026C346.987 127.954 346.711 127.918 346.447 127.918C345.859 127.918 345.385 128.134 345.025 128.566C344.665 128.998 344.383 129.67 344.179 130.582V136H342.523V126.514H343.945L344.107 128.44C344.359 127.732 344.701 127.198 345.133 126.838C345.565 126.478 346.069 126.298 346.645 126.298ZM356.085 130.978C356.085 131.254 356.073 131.536 356.049 131.824H350.001C350.073 132.868 350.337 133.636 350.793 134.128C351.249 134.62 351.837 134.866 352.557 134.866C353.013 134.866 353.433 134.8 353.817 134.668C354.201 134.536 354.603 134.326 355.023 134.038L355.743 135.028C354.735 135.82 353.631 136.216 352.431 136.216C351.111 136.216 350.079 135.784 349.335 134.92C348.603 134.056 348.237 132.868 348.237 131.356C348.237 130.372 348.393 129.502 348.705 128.746C349.029 127.978 349.485 127.378 350.073 126.946C350.673 126.514 351.375 126.298 352.179 126.298C353.439 126.298 354.405 126.712 355.077 127.54C355.749 128.368 356.085 129.514 356.085 130.978ZM354.447 130.492C354.447 129.556 354.261 128.842 353.889 128.35C353.517 127.858 352.959 127.612 352.215 127.612C350.859 127.612 350.121 128.608 350.001 130.6H354.447V130.492Z" fill="#545454"/>
<circle cx="185" cy="50" r="50" fill="#F4F4F6"/>
<path d="M184.713 81.1403C185.287 81.1403 186.051 80.9493 186.815 80.5672C204.964 71.0149 210.696 66.3343 210.696 54.9672V30.991C210.696 27.7433 209.358 26.6925 206.684 25.5463C202.863 24.0179 191.018 19.7194 187.388 18.4776C186.433 18.191 185.669 18 184.713 18C183.758 18 182.994 18.191 182.134 18.4776C178.409 19.6239 166.564 24.1134 162.839 25.5463C160.164 26.597 158.731 27.7433 158.731 30.991V54.8716C158.731 66.3343 164.845 70.5373 182.612 80.5672C183.472 80.9493 184.236 81.1403 184.713 81.1403Z" fill="#29BA85"/>
<path d="M188.63 35.194H175.257C174.015 35.194 173.06 36.3403 173.06 37.8687V58.3105C173.06 59.8388 174.015 60.9851 175.161 60.9851H195.794C196.94 60.9851 197.896 59.8388 197.896 58.3105V44.4597C197.896 43.409 197.513 42.4537 196.749 41.6896L191.4 36.3403C191.039 35.9724 190.608 35.6811 190.132 35.4841C189.656 35.2872 189.145 35.1885 188.63 35.194V35.194Z" fill="white"/>
<path d="M185.478 51.4328C187.588 51.4328 189.299 49.7222 189.299 47.6119C189.299 45.5017 187.588 43.791 185.478 43.791C183.367 43.791 181.657 45.5017 181.657 47.6119C181.657 49.7222 183.367 51.4328 185.478 51.4328Z" fill="#29BA85"/>
<path d="M198.474 63.474L169.768 34.7676C169.581 34.581 169.279 34.581 169.092 34.7676L167.741 36.1185C167.555 36.305 167.555 36.6074 167.741 36.7939L196.448 65.5003C196.634 65.6868 196.937 65.6868 197.123 65.5003L198.474 64.1494C198.661 63.9629 198.661 63.6605 198.474 63.474Z" fill="white"/>
<path d="M171.34 32.3284L200.761 61.6537L198.755 63.8508L169.239 34.2388L171.34 32.3284Z" fill="#29BA85"/>
</svg>
