<svg width="48" height="48" viewBox="0 0 48 48" fill="none" xmlns="http://www.w3.org/2000/svg">
<circle cx="24" cy="24" r="24" fill="#29BA85"/>
<path d="M34.68 28.5067C33.04 28.5067 31.4533 28.24 29.9733 27.76C29.5067 27.6 28.9867 27.72 28.6267 28.08L26.5333 30.7067C22.76 28.9067 19.2267 25.5067 17.3467 21.6L19.9467 19.3867C20.3067 19.0133 20.4133 18.4933 20.2667 18.0267C19.7733 16.5467 19.52 14.96 19.52 13.32C19.52 12.6 18.92 12 18.2 12H13.5867C12.8667 12 12 12.32 12 13.32C12 25.7067 22.3067 36 34.68 36C35.6267 36 36 35.16 36 34.4267V29.8267C36 29.1067 35.4 28.5067 34.68 28.5067Z" fill="white"/>
</svg>
