<svg width="370" height="144" viewBox="0 0 370 144" fill="none" xmlns="http://www.w3.org/2000/svg">
<path d="M35.5873 124.598L31.5913 132.23V137H29.8633V132.248L25.8673 124.598H27.7573L30.7813 130.736L33.8053 124.598H35.5873ZM39.8931 127.298C41.2251 127.298 42.2571 127.742 42.9891 128.63C43.7331 129.518 44.1051 130.724 44.1051 132.248C44.1051 133.232 43.9371 134.102 43.6011 134.858C43.2651 135.602 42.7791 136.184 42.1431 136.604C41.5071 137.012 40.7511 137.216 39.8751 137.216C38.5431 137.216 37.5051 136.772 36.7611 135.884C36.0171 134.996 35.6451 133.79 35.6451 132.266C35.6451 131.282 35.8131 130.418 36.1491 129.674C36.4851 128.918 36.9711 128.336 37.6071 127.928C38.2431 127.508 39.0051 127.298 39.8931 127.298ZM39.8931 128.63C38.2491 128.63 37.4271 129.842 37.4271 132.266C37.4271 134.678 38.2431 135.884 39.8751 135.884C41.5071 135.884 42.3231 134.672 42.3231 132.248C42.3231 129.836 41.5131 128.63 39.8931 128.63ZM53.8969 137H52.4749L52.3489 135.524C51.9889 136.112 51.5749 136.544 51.1069 136.82C50.6389 137.084 50.0689 137.216 49.3969 137.216C48.5689 137.216 47.9209 136.964 47.4529 136.46C46.9849 135.956 46.7509 135.242 46.7509 134.318V127.514H48.4069V134.138C48.4069 134.786 48.5209 135.248 48.7489 135.524C48.9769 135.788 49.3489 135.92 49.8649 135.92C50.7889 135.92 51.5809 135.374 52.2409 134.282V127.514H53.8969V137ZM61.4394 127.298C61.7754 127.298 62.0874 127.334 62.3754 127.406L62.0694 129.026C61.7814 128.954 61.5054 128.918 61.2414 128.918C60.6534 128.918 60.1794 129.134 59.8194 129.566C59.4594 129.998 59.1774 130.67 58.9734 131.582V137H57.3174V127.514H58.7394L58.9014 129.44C59.1534 128.732 59.4954 128.198 59.9274 127.838C60.3594 127.478 60.8634 127.298 61.4394 127.298ZM70.9145 137.216C70.3025 137.216 69.8165 137.036 69.4565 136.676C69.1085 136.304 68.9345 135.788 68.9345 135.128V123.698L70.5905 123.5V135.092C70.5905 135.356 70.6325 135.548 70.7165 135.668C70.8125 135.788 70.9685 135.848 71.1845 135.848C71.4125 135.848 71.6165 135.812 71.7965 135.74L72.2285 136.892C71.8325 137.108 71.3945 137.216 70.9145 137.216ZM77.774 127.298C79.106 127.298 80.138 127.742 80.87 128.63C81.614 129.518 81.986 130.724 81.986 132.248C81.986 133.232 81.818 134.102 81.482 134.858C81.146 135.602 80.66 136.184 80.024 136.604C79.388 137.012 78.632 137.216 77.756 137.216C76.424 137.216 75.386 136.772 74.642 135.884C73.898 134.996 73.526 133.79 73.526 132.266C73.526 131.282 73.694 130.418 74.03 129.674C74.366 128.918 74.852 128.336 75.488 127.928C76.124 127.508 76.886 127.298 77.774 127.298ZM77.774 128.63C76.13 128.63 75.308 129.842 75.308 132.266C75.308 134.678 76.124 135.884 77.756 135.884C79.388 135.884 80.204 134.672 80.204 132.248C80.204 129.836 79.394 128.63 77.774 128.63ZM88.1777 127.298C88.7417 127.298 89.2577 127.382 89.7257 127.55C90.1937 127.706 90.6437 127.964 91.0757 128.324L90.2837 129.368C89.9477 129.128 89.6177 128.954 89.2937 128.846C88.9817 128.726 88.6337 128.666 88.2497 128.666C87.4817 128.666 86.8817 128.972 86.4497 129.584C86.0297 130.196 85.8197 131.102 85.8197 132.302C85.8197 133.502 86.0297 134.39 86.4497 134.966C86.8697 135.53 87.4697 135.812 88.2497 135.812C88.6217 135.812 88.9637 135.758 89.2757 135.65C89.5877 135.53 89.9357 135.344 90.3197 135.092L91.0757 136.172C90.2117 136.868 89.2457 137.216 88.1777 137.216C86.8937 137.216 85.8797 136.784 85.1357 135.92C84.4037 135.056 84.0377 133.862 84.0377 132.338C84.0377 131.33 84.2057 130.448 84.5417 129.692C84.8777 128.936 85.3517 128.348 85.9637 127.928C86.5877 127.508 87.3257 127.298 88.1777 127.298ZM99.5316 134.786C99.5316 135.17 99.5976 135.458 99.7296 135.65C99.8616 135.83 100.06 135.968 100.324 136.064L99.9456 137.216C99.4536 137.156 99.0576 137.018 98.7576 136.802C98.4576 136.586 98.2356 136.25 98.0916 135.794C97.4556 136.742 96.5136 137.216 95.2656 137.216C94.3296 137.216 93.5916 136.952 93.0516 136.424C92.5116 135.896 92.2416 135.206 92.2416 134.354C92.2416 133.346 92.6016 132.572 93.3216 132.032C94.0536 131.492 95.0856 131.222 96.4176 131.222H97.8756V130.52C97.8756 129.848 97.7136 129.368 97.3896 129.08C97.0656 128.792 96.5676 128.648 95.8956 128.648C95.1996 128.648 94.3476 128.816 93.3396 129.152L92.9256 127.946C94.1016 127.514 95.1936 127.298 96.2016 127.298C97.3176 127.298 98.1516 127.574 98.7036 128.126C99.2556 128.666 99.5316 129.44 99.5316 130.448V134.786ZM95.6436 135.974C96.5916 135.974 97.3356 135.482 97.8756 134.498V132.32H96.6336C94.8816 132.32 94.0056 132.968 94.0056 134.264C94.0056 134.828 94.1436 135.254 94.4196 135.542C94.6956 135.83 95.1036 135.974 95.6436 135.974ZM107.721 136.568C107.097 137 106.389 137.216 105.597 137.216C104.793 137.216 104.163 136.988 103.707 136.532C103.263 136.064 103.041 135.392 103.041 134.516V128.792H101.385V127.514H103.041V125.372L104.697 125.174V127.514H106.947L106.767 128.792H104.697V134.444C104.697 134.936 104.781 135.296 104.949 135.524C105.129 135.74 105.423 135.848 105.831 135.848C106.203 135.848 106.623 135.722 107.091 135.47L107.721 136.568ZM111.093 127.514V137H109.437V127.514H111.093ZM110.247 122.96C110.595 122.96 110.877 123.068 111.093 123.284C111.309 123.5 111.417 123.77 111.417 124.094C111.417 124.418 111.309 124.688 111.093 124.904C110.877 125.108 110.595 125.21 110.247 125.21C109.911 125.21 109.635 125.108 109.419 124.904C109.203 124.688 109.095 124.418 109.095 124.094C109.095 123.77 109.203 123.5 109.419 123.284C109.635 123.068 109.911 122.96 110.247 122.96ZM118.081 127.298C119.413 127.298 120.445 127.742 121.177 128.63C121.921 129.518 122.293 130.724 122.293 132.248C122.293 133.232 122.125 134.102 121.789 134.858C121.453 135.602 120.967 136.184 120.331 136.604C119.695 137.012 118.939 137.216 118.063 137.216C116.731 137.216 115.693 136.772 114.949 135.884C114.205 134.996 113.833 133.79 113.833 132.266C113.833 131.282 114.001 130.418 114.337 129.674C114.673 128.918 115.159 128.336 115.795 127.928C116.431 127.508 117.193 127.298 118.081 127.298ZM118.081 128.63C116.437 128.63 115.615 129.842 115.615 132.266C115.615 134.678 116.431 135.884 118.063 135.884C119.695 135.884 120.511 134.672 120.511 132.248C120.511 129.836 119.701 128.63 118.081 128.63ZM129.492 127.298C130.356 127.298 131.028 127.556 131.508 128.072C132 128.588 132.246 129.296 132.246 130.196V137H130.59V130.43C130.59 129.758 130.464 129.284 130.212 129.008C129.96 128.732 129.588 128.594 129.096 128.594C128.592 128.594 128.148 128.738 127.764 129.026C127.38 129.314 127.02 129.728 126.684 130.268V137H125.028V127.514H126.45L126.594 128.918C126.93 128.414 127.344 128.018 127.836 127.73C128.34 127.442 128.892 127.298 129.492 127.298ZM147.683 123.698V137H146.225L146.063 135.686C145.751 136.166 145.361 136.544 144.893 136.82C144.425 137.084 143.903 137.216 143.327 137.216C142.199 137.216 141.317 136.772 140.681 135.884C140.057 134.996 139.745 133.802 139.745 132.302C139.745 131.33 139.895 130.466 140.195 129.71C140.495 128.954 140.927 128.366 141.491 127.946C142.055 127.514 142.715 127.298 143.471 127.298C144.443 127.298 145.295 127.688 146.027 128.468V123.5L147.683 123.698ZM143.687 135.902C144.191 135.902 144.623 135.788 144.983 135.56C145.343 135.32 145.691 134.966 146.027 134.498V129.854C145.715 129.446 145.379 129.14 145.019 128.936C144.671 128.72 144.275 128.612 143.831 128.612C143.099 128.612 142.529 128.918 142.121 129.53C141.725 130.142 141.527 131.054 141.527 132.266C141.527 133.49 141.713 134.402 142.085 135.002C142.457 135.602 142.991 135.902 143.687 135.902ZM157.487 134.786C157.487 135.17 157.553 135.458 157.685 135.65C157.817 135.83 158.015 135.968 158.279 136.064L157.901 137.216C157.409 137.156 157.013 137.018 156.713 136.802C156.413 136.586 156.191 136.25 156.047 135.794C155.411 136.742 154.469 137.216 153.221 137.216C152.285 137.216 151.547 136.952 151.007 136.424C150.467 135.896 150.197 135.206 150.197 134.354C150.197 133.346 150.557 132.572 151.277 132.032C152.009 131.492 153.041 131.222 154.373 131.222H155.831V130.52C155.831 129.848 155.669 129.368 155.345 129.08C155.021 128.792 154.523 128.648 153.851 128.648C153.155 128.648 152.303 128.816 151.295 129.152L150.881 127.946C152.057 127.514 153.149 127.298 154.157 127.298C155.273 127.298 156.107 127.574 156.659 128.126C157.211 128.666 157.487 129.44 157.487 130.448V134.786ZM153.599 135.974C154.547 135.974 155.291 135.482 155.831 134.498V132.32H154.589C152.837 132.32 151.961 132.968 151.961 134.264C151.961 134.828 152.099 135.254 152.375 135.542C152.651 135.83 153.059 135.974 153.599 135.974ZM165.676 136.568C165.052 137 164.344 137.216 163.552 137.216C162.748 137.216 162.118 136.988 161.662 136.532C161.218 136.064 160.996 135.392 160.996 134.516V128.792H159.34V127.514H160.996V125.372L162.652 125.174V127.514H164.902L164.722 128.792H162.652V134.444C162.652 134.936 162.736 135.296 162.904 135.524C163.084 135.74 163.378 135.848 163.786 135.848C164.158 135.848 164.578 135.722 165.046 135.47L165.676 136.568ZM173.659 134.786C173.659 135.17 173.725 135.458 173.857 135.65C173.989 135.83 174.187 135.968 174.451 136.064L174.073 137.216C173.581 137.156 173.185 137.018 172.885 136.802C172.585 136.586 172.363 136.25 172.219 135.794C171.583 136.742 170.641 137.216 169.393 137.216C168.457 137.216 167.719 136.952 167.179 136.424C166.639 135.896 166.369 135.206 166.369 134.354C166.369 133.346 166.729 132.572 167.449 132.032C168.181 131.492 169.213 131.222 170.545 131.222H172.003V130.52C172.003 129.848 171.841 129.368 171.517 129.08C171.193 128.792 170.695 128.648 170.023 128.648C169.327 128.648 168.475 128.816 167.467 129.152L167.053 127.946C168.229 127.514 169.321 127.298 170.329 127.298C171.445 127.298 172.279 127.574 172.831 128.126C173.383 128.666 173.659 129.44 173.659 130.448V134.786ZM169.771 135.974C170.719 135.974 171.463 135.482 172.003 134.498V132.32H170.761C169.009 132.32 168.133 132.968 168.133 134.264C168.133 134.828 168.271 135.254 168.547 135.542C168.823 135.83 169.231 135.974 169.771 135.974ZM183.479 127.514V137H181.823V127.514H183.479ZM182.633 122.96C182.981 122.96 183.263 123.068 183.479 123.284C183.695 123.5 183.803 123.77 183.803 124.094C183.803 124.418 183.695 124.688 183.479 124.904C183.263 125.108 182.981 125.21 182.633 125.21C182.297 125.21 182.021 125.108 181.805 124.904C181.589 124.688 181.481 124.418 181.481 124.094C181.481 123.77 181.589 123.5 181.805 123.284C182.021 123.068 182.297 122.96 182.633 122.96ZM189.477 127.298C190.125 127.298 190.707 127.388 191.223 127.568C191.739 127.748 192.231 128.018 192.699 128.378L191.997 129.422C191.565 129.146 191.151 128.942 190.755 128.81C190.371 128.678 189.963 128.612 189.531 128.612C188.991 128.612 188.565 128.726 188.253 128.954C187.941 129.17 187.785 129.47 187.785 129.854C187.785 130.238 187.929 130.538 188.217 130.754C188.517 130.97 189.051 131.18 189.819 131.384C190.875 131.648 191.661 132.008 192.177 132.464C192.705 132.92 192.969 133.544 192.969 134.336C192.969 135.272 192.603 135.986 191.871 136.478C191.151 136.97 190.269 137.216 189.225 137.216C187.785 137.216 186.591 136.802 185.643 135.974L186.525 134.966C187.329 135.578 188.217 135.884 189.189 135.884C189.813 135.884 190.305 135.758 190.665 135.506C191.037 135.242 191.223 134.888 191.223 134.444C191.223 134.12 191.157 133.862 191.025 133.67C190.893 133.466 190.665 133.292 190.341 133.148C190.017 132.992 189.543 132.83 188.919 132.662C187.911 132.398 187.179 132.044 186.723 131.6C186.279 131.156 186.057 130.592 186.057 129.908C186.057 129.416 186.201 128.972 186.489 128.576C186.789 128.168 187.197 127.856 187.713 127.64C188.241 127.412 188.829 127.298 189.477 127.298ZM204.533 127.298C205.397 127.298 206.069 127.556 206.549 128.072C207.041 128.588 207.287 129.296 207.287 130.196V137H205.631V130.43C205.631 129.758 205.505 129.284 205.253 129.008C205.001 128.732 204.629 128.594 204.137 128.594C203.633 128.594 203.189 128.738 202.805 129.026C202.421 129.314 202.061 129.728 201.725 130.268V137H200.069V127.514H201.491L201.635 128.918C201.971 128.414 202.385 128.018 202.877 127.73C203.381 127.442 203.933 127.298 204.533 127.298ZM214.18 127.298C215.512 127.298 216.544 127.742 217.276 128.63C218.02 129.518 218.392 130.724 218.392 132.248C218.392 133.232 218.224 134.102 217.888 134.858C217.552 135.602 217.066 136.184 216.43 136.604C215.794 137.012 215.038 137.216 214.162 137.216C212.83 137.216 211.792 136.772 211.048 135.884C210.304 134.996 209.932 133.79 209.932 132.266C209.932 131.282 210.1 130.418 210.436 129.674C210.772 128.918 211.258 128.336 211.894 127.928C212.53 127.508 213.292 127.298 214.18 127.298ZM214.18 128.63C212.536 128.63 211.714 129.842 211.714 132.266C211.714 134.678 212.53 135.884 214.162 135.884C215.794 135.884 216.61 134.672 216.61 132.248C216.61 129.836 215.8 128.63 214.18 128.63ZM225.916 136.568C225.292 137 224.584 137.216 223.792 137.216C222.988 137.216 222.358 136.988 221.902 136.532C221.458 136.064 221.236 135.392 221.236 134.516V128.792H219.58V127.514H221.236V125.372L222.892 125.174V127.514H225.142L224.962 128.792H222.892V134.444C222.892 134.936 222.976 135.296 223.144 135.524C223.324 135.74 223.618 135.848 224.026 135.848C224.398 135.848 224.818 135.722 225.286 135.47L225.916 136.568ZM239.452 137H238.03L237.904 135.524C237.544 136.112 237.13 136.544 236.662 136.82C236.194 137.084 235.624 137.216 234.952 137.216C234.124 137.216 233.476 136.964 233.008 136.46C232.54 135.956 232.306 135.242 232.306 134.318V127.514H233.962V134.138C233.962 134.786 234.076 135.248 234.304 135.524C234.532 135.788 234.904 135.92 235.42 135.92C236.344 135.92 237.136 135.374 237.796 134.282V127.514H239.452V137ZM245.446 127.298C246.094 127.298 246.676 127.388 247.192 127.568C247.708 127.748 248.2 128.018 248.668 128.378L247.966 129.422C247.534 129.146 247.12 128.942 246.724 128.81C246.34 128.678 245.932 128.612 245.5 128.612C244.96 128.612 244.534 128.726 244.222 128.954C243.91 129.17 243.754 129.47 243.754 129.854C243.754 130.238 243.898 130.538 244.186 130.754C244.486 130.97 245.02 131.18 245.788 131.384C246.844 131.648 247.63 132.008 248.146 132.464C248.674 132.92 248.938 133.544 248.938 134.336C248.938 135.272 248.572 135.986 247.84 136.478C247.12 136.97 246.238 137.216 245.194 137.216C243.754 137.216 242.56 136.802 241.612 135.974L242.494 134.966C243.298 135.578 244.186 135.884 245.158 135.884C245.782 135.884 246.274 135.758 246.634 135.506C247.006 135.242 247.192 134.888 247.192 134.444C247.192 134.12 247.126 133.862 246.994 133.67C246.862 133.466 246.634 133.292 246.31 133.148C245.986 132.992 245.512 132.83 244.888 132.662C243.88 132.398 243.148 132.044 242.692 131.6C242.248 131.156 242.026 130.592 242.026 129.908C242.026 129.416 242.17 128.972 242.458 128.576C242.758 128.168 243.166 127.856 243.682 127.64C244.21 127.412 244.798 127.298 245.446 127.298ZM258.438 131.978C258.438 132.254 258.426 132.536 258.402 132.824H252.354C252.426 133.868 252.69 134.636 253.146 135.128C253.602 135.62 254.19 135.866 254.91 135.866C255.366 135.866 255.786 135.8 256.17 135.668C256.554 135.536 256.956 135.326 257.376 135.038L258.096 136.028C257.088 136.82 255.984 137.216 254.784 137.216C253.464 137.216 252.432 136.784 251.688 135.92C250.956 135.056 250.59 133.868 250.59 132.356C250.59 131.372 250.746 130.502 251.058 129.746C251.382 128.978 251.838 128.378 252.426 127.946C253.026 127.514 253.728 127.298 254.532 127.298C255.792 127.298 256.758 127.712 257.43 128.54C258.102 129.368 258.438 130.514 258.438 131.978ZM256.8 131.492C256.8 130.556 256.614 129.842 256.242 129.35C255.87 128.858 255.312 128.612 254.568 128.612C253.212 128.612 252.474 129.608 252.354 131.6H256.8V131.492ZM268.427 123.698V137H266.969L266.807 135.686C266.495 136.166 266.105 136.544 265.637 136.82C265.169 137.084 264.647 137.216 264.071 137.216C262.943 137.216 262.061 136.772 261.425 135.884C260.801 134.996 260.489 133.802 260.489 132.302C260.489 131.33 260.639 130.466 260.939 129.71C261.239 128.954 261.671 128.366 262.235 127.946C262.799 127.514 263.459 127.298 264.215 127.298C265.187 127.298 266.039 127.688 266.771 128.468V123.5L268.427 123.698ZM264.431 135.902C264.935 135.902 265.367 135.788 265.727 135.56C266.087 135.32 266.435 134.966 266.771 134.498V129.854C266.459 129.446 266.123 129.14 265.763 128.936C265.415 128.72 265.019 128.612 264.575 128.612C263.843 128.612 263.273 128.918 262.865 129.53C262.469 130.142 262.271 131.054 262.271 132.266C262.271 133.49 262.457 134.402 262.829 135.002C263.201 135.602 263.735 135.902 264.431 135.902ZM280.169 127.298C281.501 127.298 282.533 127.742 283.265 128.63C284.009 129.518 284.381 130.724 284.381 132.248C284.381 133.232 284.213 134.102 283.877 134.858C283.541 135.602 283.055 136.184 282.419 136.604C281.783 137.012 281.027 137.216 280.151 137.216C278.819 137.216 277.781 136.772 277.037 135.884C276.293 134.996 275.921 133.79 275.921 132.266C275.921 131.282 276.089 130.418 276.425 129.674C276.761 128.918 277.247 128.336 277.883 127.928C278.519 127.508 279.281 127.298 280.169 127.298ZM280.169 128.63C278.525 128.63 277.703 129.842 277.703 132.266C277.703 134.678 278.519 135.884 280.151 135.884C281.783 135.884 282.599 134.672 282.599 132.248C282.599 129.836 281.789 128.63 280.169 128.63ZM291.238 127.298C291.574 127.298 291.886 127.334 292.174 127.406L291.868 129.026C291.58 128.954 291.304 128.918 291.04 128.918C290.452 128.918 289.978 129.134 289.618 129.566C289.258 129.998 288.976 130.67 288.772 131.582V137H287.116V127.514H288.538L288.7 129.44C288.952 128.732 289.294 128.198 289.726 127.838C290.158 127.478 290.662 127.298 291.238 127.298ZM301.397 127.298C302.045 127.298 302.627 127.388 303.143 127.568C303.659 127.748 304.151 128.018 304.619 128.378L303.917 129.422C303.485 129.146 303.071 128.942 302.675 128.81C302.291 128.678 301.883 128.612 301.451 128.612C300.911 128.612 300.485 128.726 300.173 128.954C299.861 129.17 299.705 129.47 299.705 129.854C299.705 130.238 299.849 130.538 300.137 130.754C300.437 130.97 300.971 131.18 301.739 131.384C302.795 131.648 303.581 132.008 304.097 132.464C304.625 132.92 304.889 133.544 304.889 134.336C304.889 135.272 304.523 135.986 303.791 136.478C303.071 136.97 302.189 137.216 301.145 137.216C299.705 137.216 298.511 136.802 297.563 135.974L298.445 134.966C299.249 135.578 300.137 135.884 301.109 135.884C301.733 135.884 302.225 135.758 302.585 135.506C302.957 135.242 303.143 134.888 303.143 134.444C303.143 134.12 303.077 133.862 302.945 133.67C302.813 133.466 302.585 133.292 302.261 133.148C301.937 132.992 301.463 132.83 300.839 132.662C299.831 132.398 299.099 132.044 298.643 131.6C298.199 131.156 297.977 130.592 297.977 129.908C297.977 129.416 298.121 128.972 298.409 128.576C298.709 128.168 299.117 127.856 299.633 127.64C300.161 127.412 300.749 127.298 301.397 127.298ZM313.44 134.786C313.44 135.17 313.506 135.458 313.638 135.65C313.77 135.83 313.968 135.968 314.232 136.064L313.854 137.216C313.362 137.156 312.966 137.018 312.666 136.802C312.366 136.586 312.144 136.25 312 135.794C311.364 136.742 310.422 137.216 309.174 137.216C308.238 137.216 307.5 136.952 306.96 136.424C306.42 135.896 306.15 135.206 306.15 134.354C306.15 133.346 306.51 132.572 307.23 132.032C307.962 131.492 308.994 131.222 310.326 131.222H311.784V130.52C311.784 129.848 311.622 129.368 311.298 129.08C310.974 128.792 310.476 128.648 309.804 128.648C309.108 128.648 308.256 128.816 307.248 129.152L306.834 127.946C308.01 127.514 309.102 127.298 310.11 127.298C311.226 127.298 312.06 127.574 312.612 128.126C313.164 128.666 313.44 129.44 313.44 130.448V134.786ZM309.552 135.974C310.5 135.974 311.244 135.482 311.784 134.498V132.32H310.542C308.79 132.32 307.914 132.968 307.914 134.264C307.914 134.828 308.052 135.254 308.328 135.542C308.604 135.83 309.012 135.974 309.552 135.974ZM323.543 127.514L320.321 137H318.323L315.047 127.514H316.847L319.331 135.524L321.797 127.514H323.543ZM332.53 131.978C332.53 132.254 332.518 132.536 332.494 132.824H326.446C326.518 133.868 326.782 134.636 327.238 135.128C327.694 135.62 328.282 135.866 329.002 135.866C329.458 135.866 329.878 135.8 330.262 135.668C330.646 135.536 331.048 135.326 331.468 135.038L332.188 136.028C331.18 136.82 330.076 137.216 328.876 137.216C327.556 137.216 326.524 136.784 325.78 135.92C325.048 135.056 324.682 133.868 324.682 132.356C324.682 131.372 324.838 130.502 325.15 129.746C325.474 128.978 325.93 128.378 326.518 127.946C327.118 127.514 327.82 127.298 328.624 127.298C329.884 127.298 330.85 127.712 331.522 128.54C332.194 129.368 332.53 130.514 332.53 131.978ZM330.892 131.492C330.892 130.556 330.706 129.842 330.334 129.35C329.962 128.858 329.404 128.612 328.66 128.612C327.304 128.612 326.566 129.608 326.446 131.6H330.892V131.492ZM342.519 123.698V137H341.061L340.899 135.686C340.587 136.166 340.197 136.544 339.729 136.82C339.261 137.084 338.739 137.216 338.163 137.216C337.035 137.216 336.153 136.772 335.517 135.884C334.893 134.996 334.581 133.802 334.581 132.302C334.581 131.33 334.731 130.466 335.031 129.71C335.331 128.954 335.763 128.366 336.327 127.946C336.891 127.514 337.551 127.298 338.307 127.298C339.279 127.298 340.131 127.688 340.863 128.468V123.5L342.519 123.698ZM338.523 135.902C339.027 135.902 339.459 135.788 339.819 135.56C340.179 135.32 340.527 134.966 340.863 134.498V129.854C340.551 129.446 340.215 129.14 339.855 128.936C339.507 128.72 339.111 128.612 338.667 128.612C337.935 128.612 337.365 128.918 336.957 129.53C336.561 130.142 336.363 131.054 336.363 132.266C336.363 133.49 336.549 134.402 336.921 135.002C337.293 135.602 337.827 135.902 338.523 135.902Z" fill="#545454"/>
<circle cx="185" cy="50" r="50" fill="#F4F4F6"/>
<path d="M185.183 80.2629C185.731 80.2629 186.463 80.08 187.194 79.7143C204.566 70.5714 210.051 66.0914 210.051 55.2114V32.2629C210.051 29.1543 208.771 28.1486 206.211 27.0514C202.554 25.5886 191.217 21.4743 187.743 20.2857C186.829 20.0114 186.097 19.8286 185.183 19.8286C184.269 19.8286 183.537 20.0114 182.714 20.2857C179.149 21.3829 167.811 25.68 164.246 27.0514C161.686 28.0571 160.314 29.1543 160.314 32.2629V55.12C160.314 66.0914 166.166 70.1143 183.171 79.7143C183.994 80.08 184.726 80.2629 185.183 80.2629Z" fill="#29BA85"/>
<path d="M185 42.5029C185.675 42.5331 186.327 42.7596 186.875 43.1545C187.423 43.5495 187.845 44.0958 188.087 44.7265C188.33 45.3572 188.383 46.045 188.241 46.7056C188.098 47.3661 187.767 47.9709 187.286 48.4457L192.314 53.3829C193.594 50.8229 194.6 48.1714 194.6 45.8857C194.591 43.9824 194.017 42.1247 192.95 40.5486C191.883 38.9724 190.372 37.749 188.608 37.0337C186.844 36.3184 184.908 36.1435 183.044 36.5313C181.181 36.919 179.475 37.8519 178.143 39.2114L182.44 43.6C183.08 42.8686 183.994 42.4114 185 42.4114V42.5029ZM191.034 55.4857L184.634 49.1771L184.451 48.9943L173.389 38.1143C173.303 38.0305 173.188 37.9836 173.069 37.9836C172.949 37.9836 172.834 38.0305 172.749 38.1143L171.651 39.0286C171.469 39.12 171.469 39.4857 171.651 39.6686L175.674 43.6914C175.491 44.3314 175.4 45.0629 175.4 45.7943C175.4 51.8286 182.166 60.3314 184.36 62.8914C184.726 63.2571 185.274 63.2571 185.64 62.8914C186.554 61.8857 188.017 59.9657 189.663 57.68L193.869 61.8857C194.051 62.0686 194.417 62.0686 194.509 61.8857L195.606 60.7886C195.789 60.6971 195.789 60.3314 195.606 60.1486L191.034 55.5771V55.4857Z" fill="white"/>
</svg>
